<svg width="264" height="143" viewBox="0 0 264 143" fill="none" xmlns="http://www.w3.org/2000/svg">
<path d="M40.1149 142.292V139.667C43.2242 138.724 45.3492 136.698 46.4899 133.584C47.6409 130.474 48.219 124.802 48.219 116.563V26.2085C48.219 17.8335 47.6409 12.1356 46.4899 9.10437C45.3492 6.0627 43.2242 4.07312 40.1149 3.1252V0.47937H72.9274V3.1252C69.8284 4.07312 67.7034 6.0627 66.5524 9.10437C65.3961 12.1356 64.8232 17.8335 64.8232 26.2085V129.938C64.8232 136.011 67.8649 139.042 73.9482 139.042H98.0524C107.771 139.042 115.229 137.594 120.427 134.688C125.636 131.787 129.995 126.557 133.511 119L135.74 119.396L134.323 142.292H40.1149Z" fill="#CDC39B"/>
<path d="M150.115 142.292V139.667C153.224 138.724 155.349 136.698 156.49 133.584C157.641 130.474 158.219 124.802 158.219 116.563V26.2085C158.219 17.8335 157.641 12.1356 156.49 9.10437C155.349 6.0627 153.224 4.07312 150.115 3.1252V0.47937H191.24C205.281 0.47937 216.313 2.4377 224.344 6.35437C232.386 10.271 238.094 15.271 241.469 21.3544C244.854 27.4273 246.552 33.771 246.552 40.396C246.552 53.896 241.719 64.9065 232.052 73.4169C222.396 81.9169 208.12 86.1669 189.219 86.1669H174.823V116.563C174.823 124.802 175.396 130.474 176.552 133.584C177.703 136.698 179.828 138.724 182.927 139.667V142.292H150.115ZM174.823 83.146H188.802C201.771 83.146 211.667 79.771 218.49 73.021C225.307 66.2606 228.719 56.9325 228.719 45.0419C228.719 37.7502 227.198 30.969 224.156 24.6877C221.115 18.4117 216.281 13.3127 209.656 9.39604C203.042 5.47937 194.271 3.52104 183.344 3.52104C181.979 3.52104 180.521 3.5575 178.969 3.6252C177.427 3.69812 176.042 3.80229 174.823 3.9377V83.146Z" fill="#CDC39B"/>
<path d="M89.7868 108.545C89.8128 108.545 89.8597 108.545 89.9326 108.545C90.167 108.571 90.391 108.618 90.5993 108.691C90.8181 108.759 91.016 108.889 91.1826 109.087C91.2503 109.154 91.2972 109.238 91.3285 109.337C91.3701 109.446 91.3701 109.545 91.3285 109.628C91.2972 109.738 91.2451 109.837 91.1618 109.92C91.0785 110.003 91.0003 110.045 90.9326 110.045C90.5264 110.097 90.1097 110.097 89.6826 110.045C79.516 107.93 68.2451 106.571 55.8701 105.962C43.5056 105.347 32.0993 105.571 21.641 106.628C21.1826 106.67 20.7295 106.722 20.2868 106.795C19.8962 106.821 19.516 106.847 19.141 106.878C17.9743 107.045 16.9743 107.566 16.141 108.441C14.266 110.483 12.2035 112.279 9.95347 113.837C8.17222 115.029 6.21389 115.696 4.07847 115.837C3.21389 115.904 2.38056 115.774 1.57847 115.441C0.828472 115.108 0.338888 114.608 0.120139 113.941C-0.10382 113.274 -0.0152771 112.555 0.390972 111.795C1.05764 110.722 2.15139 109.8 3.68264 109.024C5.22431 108.259 6.85972 107.634 8.59931 107.149C10.3337 106.675 11.7972 106.321 12.9951 106.087C14.5889 105.779 15.891 105.003 16.891 103.753C21.7243 97.8784 26.3701 91.2273 30.8285 83.795C35.2972 76.368 39.417 68.7221 43.1826 60.8575C46.9431 52.9825 50.1826 45.4513 52.891 38.2534C52.9847 37.8784 53.141 37.5555 53.3493 37.2742C53.5681 36.9982 53.8962 36.8055 54.3285 36.6909C54.7295 36.6388 55.0785 36.7221 55.3701 36.9409C55.6722 37.1492 55.7972 37.4565 55.7451 37.8575C55.6045 38.7898 55.3701 39.7065 55.0368 40.6075C52.4378 47.4305 49.3597 54.5398 45.8076 61.9409C42.266 69.3471 38.4014 76.5607 34.2243 83.5867C30.042 90.618 25.7295 96.9825 21.2868 102.691C20.3545 103.858 20.0681 104.529 20.4326 104.712C20.8076 104.904 21.5212 104.899 22.5785 104.691C22.8285 104.649 23.0628 104.613 23.2868 104.587C31.6201 103.654 40.2556 103.368 49.2035 103.733C58.1618 104.108 66.9847 104.889 75.6826 106.087C78.7503 106.529 81.7503 107.029 84.6826 107.587C86.417 107.92 88.1201 108.238 89.7868 108.545ZM5.32847 113.691C7.87014 112.649 9.97431 111.014 11.641 108.795C8.90139 108.988 6.46389 109.837 4.32847 111.337C3.66181 111.837 3.27118 112.321 3.16181 112.795C3.04722 113.264 3.18264 113.608 3.55764 113.816C3.94306 114.024 4.53681 113.983 5.32847 113.691Z" fill="black"/>
<path d="M41.474 95.5034C40.0469 95.5034 39.3281 94.7534 39.3281 93.2534C39.3281 91.42 40.5156 88.1856 42.8906 83.545C42.974 83.3523 43.1406 83.2534 43.3906 83.2534C44.349 83.2534 44.8281 83.6388 44.8281 84.3992C44.8281 84.6648 44.7448 84.9981 44.5781 85.3992C44.5052 85.4981 43.7083 87.4929 42.1823 91.3784C41.9427 92.019 41.8281 92.4929 41.8281 92.795C41.8281 93.1284 41.974 93.295 42.2656 93.295C43.375 93.295 46.276 90.545 50.974 85.045C51.5833 84.3106 52.1823 83.9409 52.7656 83.9409C53.6406 83.9409 54.0781 84.2638 54.0781 84.8992C54.0781 85.1388 53.8073 86.0554 53.2656 87.6492C52.5417 89.8054 52.1823 91.045 52.1823 91.3784C52.1823 91.8784 52.349 92.1284 52.6823 92.1284C53.5156 92.1284 55.9427 90.6492 59.974 87.6909C60.2083 87.4981 60.4115 87.3992 60.5781 87.3992C60.9531 87.3992 61.1406 87.7117 61.1406 88.3367C61.1406 88.5034 61.0833 88.644 60.974 88.7534C58.8333 90.5867 57.0156 91.9825 55.5156 92.9409C54.151 93.8159 52.9427 94.2534 51.8906 94.2534H51.5781C50.0052 93.92 49.224 92.7013 49.224 90.5867C47.5573 92.0606 46.1719 93.2481 45.0781 94.1492C43.9792 95.0554 42.776 95.5034 41.474 95.5034Z" fill="black"/>
<path d="M75.0318 87.6909C75.1151 87.6909 75.2037 87.7117 75.3026 87.7534C75.3964 87.7846 75.4745 87.8263 75.5318 87.8784C75.7505 88.0867 75.7818 88.3263 75.6151 88.5867C75.3912 88.8263 75.1828 89.0242 74.9901 89.1909C73.8234 90.2638 72.5318 91.1596 71.1151 91.8784C68.8651 93.019 66.3912 93.6023 63.6984 93.6284C62.6984 93.6701 61.6672 93.5034 60.6151 93.1284C58.6672 92.3784 57.8807 90.9826 58.2401 88.9409C58.6828 87.0398 59.7505 85.4617 61.4484 84.2117C63.1412 82.9617 64.9589 82.4201 66.9068 82.5867C67.2662 82.6596 67.6255 82.743 67.9901 82.8367C68.3234 82.9773 68.5734 83.1805 68.7401 83.4409C68.9068 83.7065 68.9276 83.9201 68.8026 84.0867C68.4276 84.493 68.0109 84.5971 67.5526 84.3992C66.8443 84.0971 66.1984 84.0138 65.6151 84.1492C65.0318 84.2742 64.4484 84.5867 63.8651 85.0867C63.2818 85.5346 62.6568 86.1701 61.9901 87.0034C61.3234 87.8367 60.8964 88.6805 60.7193 89.5242C60.537 90.3732 60.9172 91.0607 61.8651 91.5867C62.9172 92.0607 64.0005 92.1805 65.1151 91.9409C67.8651 91.3732 70.4172 90.3263 72.7818 88.7951C73.0005 88.6857 73.1984 88.5659 73.3651 88.4409C73.6151 88.2326 73.8703 88.0659 74.1359 87.9409C74.3964 87.8159 74.6984 87.7326 75.0318 87.6909Z" fill="black"/>
<path d="M81.9013 89.9409C81.0941 90.8992 80.1357 91.7846 79.0263 92.5867C77.9274 93.394 76.6774 93.9356 75.2763 94.2117C73.8857 94.4929 72.8128 94.394 72.0472 93.92C71.2711 93.4356 71.1201 92.3575 71.5888 90.6909C72.1878 88.9565 73.0159 87.3106 74.0888 85.7534C74.3232 85.42 74.6722 85.1856 75.1305 85.045C75.4638 84.9773 75.7555 85.0398 76.0055 85.2325C76.2555 85.4148 76.3493 85.6492 76.2972 85.9409C76.0576 86.4825 75.8024 87.0242 75.5263 87.5659C75.2607 88.1075 75.0784 88.4617 74.9847 88.6284C74.4534 89.6023 74.0888 90.6231 73.8805 91.6909C73.8805 92.2898 74.6826 92.3263 76.2972 91.795C77.9222 91.269 79.4951 90.295 81.0263 88.8784C82.568 87.4617 83.3024 87.045 83.2347 87.6284C83.1618 88.2117 82.7191 88.9825 81.9013 89.9409ZM77.4847 78.8367C77.5784 78.67 77.7243 78.5659 77.9222 78.5242C78.1305 78.4721 78.3388 78.4409 78.5472 78.4409C78.5993 78.4825 78.6513 78.5034 78.693 78.5034C78.7607 78.5034 78.8441 78.519 78.943 78.545C79.443 78.644 79.7138 78.795 79.7555 79.0034C79.8076 79.2013 79.7555 79.4148 79.5888 79.6492C79.4222 79.8888 79.2399 80.1023 79.0472 80.295C78.5472 80.8263 78.0576 81.42 77.5888 82.0867C77.1826 82.6596 76.8232 83.1075 76.5055 83.4409C76.1982 83.7742 75.9638 83.8263 75.7972 83.5867C75.6305 83.4617 75.5316 83.3106 75.5055 83.1284C75.4899 82.9356 75.5159 82.7429 75.5888 82.545C75.7243 81.9513 75.943 81.3888 76.2347 80.8575C76.5368 80.3159 76.8597 79.795 77.193 79.295C77.2868 79.1596 77.3857 79.0034 77.4847 78.8367Z" fill="black"/>
<path d="M97.2897 87.9617C97.6491 88.1596 97.6751 88.6492 97.373 89.4409C96.9407 90.0138 96.4772 90.545 95.9772 91.045C95.4772 91.545 94.9251 91.993 94.3314 92.3784C94.2897 92.3784 94.2689 92.3992 94.2689 92.4409C93.8626 92.7065 93.446 92.9357 93.0189 93.1284C89.3939 94.4357 87.5449 93.67 87.4772 90.8367C86.0032 92.118 85.0189 92.8992 84.5189 93.1909C83.321 93.8992 82.0241 94.2117 80.623 94.1284C79.597 94.0763 78.9043 93.7638 78.5397 93.1909C78.1647 92.6232 78.196 91.8523 78.623 90.8784C79.2897 89.3523 80.2428 87.993 81.4772 86.795C82.9043 85.4617 84.5032 84.394 86.2689 83.5867C87.196 83.1284 88.1855 82.9513 89.2272 83.045C90.2532 83.118 90.873 83.7013 91.0814 84.795C91.1751 85.1284 91.0918 85.4305 90.8314 85.6909C90.498 85.9982 90.1074 86.0659 89.6647 85.8992C89.6335 85.8992 89.5918 85.894 89.5397 85.8784C89.498 85.8523 89.4564 85.8263 89.4147 85.795C88.9824 85.2013 88.5397 84.9513 88.0814 85.045C87.6335 85.144 87.1647 85.3471 86.6647 85.6492C84.3314 87.0138 82.6022 88.9096 81.4772 91.3367C81.4043 91.4513 81.3626 91.5659 81.3522 91.6909C81.3366 91.8159 81.3782 91.92 81.4772 92.0034C81.7376 92.0867 82.0397 92.0659 82.373 91.9409C82.7064 91.8159 83.0397 91.6284 83.373 91.3784C83.7064 91.1284 83.9876 90.92 84.2272 90.7534C84.2532 90.7117 84.2689 90.6909 84.2689 90.6909C85.3626 89.7638 86.446 88.8107 87.5189 87.8367C87.9876 87.3367 88.571 87.0607 89.2689 87.0034C90.2689 87.0034 90.6855 87.4513 90.5189 88.3367C90.4199 88.67 90.321 89.0034 90.2272 89.3367C89.821 90.7846 89.8001 91.6284 90.1647 91.8784C90.5397 92.1284 91.1022 92.1284 91.8522 91.8784C92.6022 91.6284 93.3522 91.1492 94.1022 90.4409C94.8522 89.7325 95.4824 89.0971 95.998 88.5242C96.5085 87.9409 96.9407 87.7534 97.2897 87.9617Z" fill="black"/>
<path d="M221.689 70.8992C222.048 70.9722 222.335 71.1232 222.543 71.3576C222.752 71.5815 222.798 71.7951 222.689 72.0034C222.548 72.2013 222.397 72.3263 222.231 72.3784C222.064 72.4201 221.882 72.4305 221.689 72.3992C221.439 72.3992 221.189 72.3784 220.939 72.3367C217.325 72.243 212.548 72.4565 206.606 72.9826C200.658 73.4982 195.866 74.0034 192.231 74.5034C189.423 74.868 186.616 75.2638 183.814 75.6909C183.757 75.6909 183.673 75.7117 183.564 75.7534C182.397 75.9201 181.325 76.3524 180.356 77.0451C176.798 79.4774 173.116 81.6805 169.314 83.6492C165.522 85.6076 161.647 87.4357 157.689 89.1284C151.272 91.9617 144.715 94.4357 138.022 96.5451C136.658 96.9097 135.658 97.743 135.022 99.0451C132.048 104.972 128.95 110.774 125.731 116.441C122.866 121.483 120.116 126.587 117.481 131.753C117.481 131.779 117.465 131.805 117.439 131.837C117.325 132.113 117.189 132.337 117.022 132.503C116.757 132.722 116.444 132.805 116.085 132.753C115.877 132.805 115.673 132.805 115.481 132.753C115.075 132.587 114.877 132.279 114.877 131.837C114.918 131.113 115.153 130.43 115.585 129.795C115.611 129.764 115.627 129.733 115.627 129.691C118.293 124.899 120.918 120.108 123.502 115.316C126.085 110.524 128.575 105.67 130.981 100.753C131.173 100.337 131.366 99.9201 131.564 99.5034C131.647 99.2951 131.731 99.0763 131.814 98.8367C131.59 98.7847 131.382 98.7326 131.189 98.6909C130.814 98.7638 130.439 98.868 130.064 99.0034C129.939 99.0347 129.814 99.0763 129.689 99.1284C125.022 100.462 120.298 101.597 115.522 102.545C112.231 103.139 108.918 103.555 105.585 103.795C105.418 103.821 105.267 103.837 105.127 103.837C104.793 103.863 104.46 103.878 104.127 103.878C102.835 103.878 101.585 103.68 100.377 103.295C99.4495 102.962 98.8922 102.43 98.7099 101.712C98.5328 100.988 98.7516 100.212 99.3766 99.3784C100.21 98.4201 101.2 97.6284 102.335 97.0034C104.908 95.394 107.606 94.0763 110.439 93.0451C117.991 90.1857 125.658 87.6701 133.439 85.5034C133.856 85.368 134.298 85.2482 134.772 85.1492C135.772 84.9409 136.7 84.6492 137.564 84.2742C138.439 83.8888 139.09 83.2117 139.522 82.2534C141.158 78.4774 142.736 74.7013 144.252 70.9201C145.762 67.144 147.173 63.3055 148.481 59.3992C148.481 59.3576 148.491 59.3107 148.522 59.2534C148.715 58.5451 148.981 57.8784 149.314 57.2534C149.45 57.0451 149.632 56.8992 149.856 56.8159C150.075 56.7326 150.298 56.7117 150.522 56.7534C150.689 56.7117 150.866 56.7117 151.064 56.7534C151.564 56.8784 151.856 57.2117 151.939 57.7534C151.939 58.7847 151.752 59.7847 151.377 60.7534C151.377 60.7847 151.356 60.8315 151.314 60.8992C149.689 65.8992 147.856 70.8159 145.814 75.6492C145.283 76.9826 144.741 78.2951 144.189 79.5867C143.981 80.0607 143.772 80.5451 143.564 81.0451C143.314 81.644 143.21 82.0555 143.252 82.2742C143.293 82.4826 143.444 82.5815 143.71 82.5659C143.986 82.5555 144.314 82.4774 144.689 82.3367C144.814 82.3107 144.939 82.2847 145.064 82.2534C146.533 81.8784 148.007 81.5138 149.481 81.1492C152.147 80.4826 154.825 79.8159 157.522 79.1492C164.132 77.5815 170.783 76.2482 177.481 75.1492C178.673 74.9409 179.715 74.4774 180.606 73.7534C182.522 72.3107 184.408 70.618 186.272 68.6701C188.132 66.7274 189.673 64.6284 190.897 62.3784C192.116 60.1284 192.668 57.8263 192.543 55.4617C192.418 53.0867 191.325 50.7326 189.272 48.3992C187.939 46.9982 186.423 45.8315 184.731 44.8992C181.147 42.9722 176.845 41.5555 171.835 40.6492C166.819 39.7482 161.444 39.2742 155.71 39.2326C149.986 39.1805 144.252 39.4722 138.502 40.1076C132.752 40.7326 127.366 41.618 122.356 42.7534C117.34 43.8784 113.033 45.1596 109.439 46.5867C106.33 47.8263 103.377 49.3472 100.585 51.1492C99.4495 51.8472 98.3766 52.6076 97.3766 53.4409C96.3766 54.2742 95.4808 55.2274 94.6891 56.2951C94.387 56.769 93.9808 57.019 93.4808 57.0451C93.387 57.0451 93.2672 57.0451 93.1266 57.0451C93.1005 57.0451 93.0641 57.0451 93.0224 57.0451C92.8297 57.0451 92.6422 57.0242 92.4599 56.9826C92.2828 56.9305 92.137 56.8159 92.0224 56.6492C91.9703 56.5138 91.9391 56.3732 91.9391 56.2326C91.9391 56.0815 91.9547 55.9513 91.9808 55.8367C92.2464 55.243 92.6005 54.7117 93.0433 54.2534C93.4755 53.7846 93.9183 53.3315 94.3766 52.8992C95.5849 51.8576 96.8505 50.9201 98.1683 50.0867C99.4755 49.2534 100.814 48.4774 102.189 47.7534C105.72 45.8784 110.231 44.1909 115.731 42.6909C121.231 41.1909 127.272 39.9826 133.856 39.0659C140.439 38.1492 147.069 37.6492 153.752 37.5659C160.429 37.4826 166.689 37.9305 172.522 38.8992C178.356 39.8732 183.325 41.493 187.439 43.7534C189.272 44.7534 190.908 46.0346 192.356 47.5867C194.408 49.894 195.575 52.1701 195.856 54.4201C196.132 56.6701 195.819 58.8576 194.918 60.9826C194.012 63.0972 192.772 65.1076 191.189 67.0242C189.606 68.9409 187.981 70.7326 186.314 72.3992C186.116 72.5659 185.923 72.7742 185.731 73.0242C185.533 73.2742 185.45 73.4826 185.481 73.6492C185.507 73.8159 185.757 73.868 186.231 73.7951C191.814 72.894 197.387 72.2117 202.96 71.7534C208.528 71.2847 214.132 70.9617 219.772 70.7951C219.939 70.7951 220.09 70.7951 220.231 70.7951H220.272C220.741 70.7951 221.215 70.8315 221.689 70.8992ZM133.689 95.1284C133.814 94.8367 134.043 94.4097 134.377 93.8367C134.835 92.9513 135.319 91.9617 135.835 90.8784C136.361 89.7951 136.736 88.8472 136.96 88.0242C137.194 87.2065 137.085 86.7638 136.627 86.6909C136.335 86.7326 136.048 86.8055 135.772 86.8992C135.715 86.8992 135.632 86.9149 135.522 86.9409C134.465 87.2742 133.397 87.5867 132.314 87.8784C129.757 88.6284 127.194 89.4201 124.627 90.2534C124.502 90.2847 124.366 90.3263 124.231 90.3784C119.632 91.7951 115.095 93.4201 110.627 95.2534C108.366 96.1701 106.22 97.2951 104.189 98.6284C103.413 99.0763 102.772 99.6544 102.272 100.378C102.08 100.68 102.022 100.962 102.106 101.212C102.189 101.462 102.397 101.654 102.731 101.795C103.429 102.014 104.142 102.128 104.877 102.128C105.517 102.128 106.147 102.097 106.772 102.045C106.814 102.045 106.835 102.045 106.835 102.045C110.127 101.712 113.377 101.175 116.585 100.441C121.653 99.3159 126.668 98.0034 131.627 96.5034C131.694 96.4617 131.741 96.4409 131.772 96.4409C132.173 96.3472 132.543 96.2065 132.877 96.0242C133.21 95.8472 133.481 95.5451 133.689 95.1284ZM137.939 94.2534C140.939 93.4774 145.022 92.0347 150.189 89.9201C155.356 87.8107 160.319 85.5815 165.085 83.2326C169.845 80.8732 173.09 78.9305 174.814 77.3992C174.59 77.3992 174.397 77.3992 174.231 77.3992C174.147 77.3992 174.09 77.3992 174.064 77.3992C163.606 79.4722 153.241 81.9357 142.981 84.7951C142.075 85.0607 141.46 85.6076 141.127 86.4409C140.502 87.7742 139.882 89.0867 139.272 90.3784C138.798 91.3524 138.335 92.3367 137.877 93.3367C137.804 93.4774 137.762 93.6284 137.752 93.7951C137.736 93.9617 137.798 94.118 137.939 94.2534Z" fill="black"/>
<path d="M182.987 89.9409C182.18 90.8992 181.222 91.7846 180.112 92.5867C179.013 93.394 177.763 93.9357 176.362 94.2117C174.972 94.493 173.899 94.394 173.133 93.9201C172.357 93.4357 172.206 92.3576 172.675 90.6909C173.274 88.9565 174.102 87.3107 175.175 85.7534C175.409 85.4201 175.758 85.1857 176.216 85.0451C176.55 84.9773 176.841 85.0398 177.091 85.2326C177.341 85.4148 177.435 85.6492 177.383 85.9409C177.144 86.4826 176.888 87.0242 176.612 87.5659C176.347 88.1076 176.164 88.4617 176.071 88.6284C175.539 89.6023 175.175 90.6232 174.966 91.6909C174.966 92.2898 175.769 92.3263 177.383 91.7951C179.008 91.269 180.581 90.2951 182.112 88.8784C183.654 87.4617 184.388 87.0451 184.321 87.6284C184.248 88.2117 183.805 88.9826 182.987 89.9409ZM179.029 82.3367C178.956 82.4096 178.805 82.4826 178.571 82.5659C178.331 82.6492 178.081 82.7117 177.821 82.7534C177.555 82.7846 177.347 82.743 177.196 82.6284C177.039 82.5034 177.034 82.2638 177.175 81.8992C177.409 81.2638 177.659 80.7065 177.925 80.2326C178.185 79.7482 178.534 79.2221 178.966 78.6492C179.242 78.3888 179.534 78.2482 179.841 78.2326C180.159 78.2065 180.425 78.2898 180.633 78.4826C180.852 78.6648 180.914 78.9201 180.821 79.2534C180.487 80.4513 179.888 81.4773 179.029 82.3367Z" fill="black"/>
<path d="M198.271 87.6909C198.355 87.6909 198.443 87.7117 198.542 87.7534C198.636 87.7846 198.714 87.8263 198.771 87.8784C198.99 88.0867 199.021 88.3263 198.855 88.5867C198.631 88.8263 198.422 89.0242 198.23 89.1909C197.063 90.2638 195.771 91.1596 194.355 91.8784C192.105 93.019 189.631 93.6023 186.938 93.6284C185.938 93.6701 184.907 93.5034 183.855 93.1284C181.907 92.3784 181.12 90.9826 181.48 88.9409C181.922 87.0398 182.99 85.4617 184.688 84.2117C186.381 82.9617 188.198 82.4201 190.146 82.5867C190.506 82.6596 190.865 82.743 191.23 82.8367C191.563 82.9773 191.813 83.1805 191.98 83.4409C192.146 83.7065 192.167 83.9201 192.042 84.0867C191.667 84.493 191.251 84.5971 190.792 84.3992C190.084 84.0971 189.438 84.0138 188.855 84.1492C188.271 84.2742 187.688 84.5867 187.105 85.0867C186.521 85.5346 185.896 86.1701 185.23 87.0034C184.563 87.8367 184.136 88.6805 183.959 89.5242C183.777 90.3732 184.157 91.0607 185.105 91.5867C186.157 92.0607 187.24 92.1805 188.355 91.9409C191.105 91.3732 193.657 90.3263 196.021 88.7951C196.24 88.6857 196.438 88.5659 196.605 88.4409C196.855 88.2326 197.11 88.0659 197.376 87.9409C197.636 87.8159 197.938 87.7326 198.271 87.6909Z" fill="black"/>
<path d="M212.495 87.6909C212.578 87.6909 212.667 87.7117 212.766 87.7534C212.86 87.7846 212.938 87.8263 212.995 87.8784C213.214 88.0867 213.245 88.3263 213.078 88.5867C212.854 88.8263 212.646 89.0242 212.453 89.1909C211.287 90.2638 209.995 91.1596 208.578 91.8784C206.328 93.019 203.854 93.6023 201.162 93.6284C200.162 93.6701 199.13 93.5034 198.078 93.1284C196.13 92.3784 195.344 90.9826 195.703 88.9409C196.146 87.0398 197.214 85.4617 198.912 84.2117C200.604 82.9617 202.422 82.4201 204.37 82.5867C204.729 82.6596 205.089 82.743 205.453 82.8367C205.787 82.9773 206.037 83.1805 206.203 83.4409C206.37 83.7065 206.391 83.9201 206.266 84.0867C205.891 84.493 205.474 84.5971 205.016 84.3992C204.308 84.0971 203.662 84.0138 203.078 84.1492C202.495 84.2742 201.912 84.5867 201.328 85.0867C200.745 85.5346 200.12 86.1701 199.453 87.0034C198.787 87.8367 198.36 88.6805 198.183 89.5242C198 90.3732 198.38 91.0607 199.328 91.5867C200.38 92.0607 201.464 92.1805 202.578 91.9409C205.328 91.3732 207.88 90.3263 210.245 88.7951C210.464 88.6857 210.662 88.5659 210.828 88.4409C211.078 88.2326 211.334 88.0659 211.599 87.9409C211.86 87.8159 212.162 87.7326 212.495 87.6909Z" fill="black"/>
<path d="M226.823 87.9617C227.182 88.1596 227.208 88.6492 226.906 89.4409C226.474 90.0138 226.01 90.545 225.51 91.045C225.01 91.545 224.458 91.993 223.865 92.3784C223.823 92.3784 223.802 92.3992 223.802 92.4409C223.396 92.7065 222.979 92.9357 222.552 93.1284C218.927 94.4357 217.078 93.67 217.01 90.8367C215.536 92.118 214.552 92.8992 214.052 93.1909C212.854 93.8992 211.557 94.2117 210.156 94.1284C209.13 94.0763 208.437 93.7638 208.073 93.1909C207.698 92.6232 207.729 91.8523 208.156 90.8784C208.823 89.3523 209.776 87.993 211.01 86.795C212.437 85.4617 214.036 84.394 215.802 83.5867C216.729 83.1284 217.719 82.9513 218.76 83.045C219.786 83.118 220.406 83.7013 220.615 84.795C220.708 85.1284 220.625 85.4305 220.365 85.6909C220.031 85.9982 219.641 86.0659 219.198 85.8992C219.167 85.8992 219.125 85.894 219.073 85.8784C219.031 85.8523 218.99 85.8263 218.948 85.795C218.516 85.2013 218.073 84.9513 217.615 85.045C217.167 85.144 216.698 85.3471 216.198 85.6492C213.865 87.0138 212.135 88.9096 211.01 91.3367C210.937 91.4513 210.896 91.5659 210.885 91.6909C210.87 91.8159 210.911 91.92 211.01 92.0034C211.271 92.0867 211.573 92.0659 211.906 91.9409C212.24 91.8159 212.573 91.6284 212.906 91.3784C213.24 91.1284 213.521 90.92 213.76 90.7534C213.786 90.7117 213.802 90.6909 213.802 90.6909C214.896 89.7638 215.979 88.8107 217.052 87.8367C217.521 87.3367 218.104 87.0607 218.802 87.0034C219.802 87.0034 220.219 87.4513 220.052 88.3367C219.953 88.67 219.854 89.0034 219.76 89.3367C219.354 90.7846 219.333 91.6284 219.698 91.8784C220.073 92.1284 220.635 92.1284 221.385 91.8784C222.135 91.6284 222.885 91.1492 223.635 90.4409C224.385 89.7325 225.016 89.0971 225.531 88.5242C226.042 87.9409 226.474 87.7534 226.823 87.9617Z" fill="black"/>
<path d="M235.372 85.5867C235.247 86.6284 234.758 87.3107 233.914 87.6284C233.065 87.9357 232.789 87.519 233.081 86.3784C233.372 85.2273 232.851 84.9357 231.518 85.5034C230.185 86.0607 229.086 86.7742 228.226 87.6492C226.893 89.0138 225.711 90.4773 224.685 92.0451C224.57 92.1857 224.487 92.2951 224.435 92.3784C224.133 92.8263 223.825 93.243 223.518 93.6284C223.325 93.9096 223.096 94.0815 222.831 94.1492C222.57 94.2221 222.299 94.2326 222.018 94.1909C221.768 94.1492 221.575 94.0451 221.435 93.8784C221.299 93.7117 221.284 93.519 221.393 93.2951C221.56 92.894 221.758 92.4773 221.976 92.0451C223.341 89.519 224.726 86.9826 226.143 84.4409C226.169 84.4148 226.185 84.3784 226.185 84.3367C226.378 83.9513 226.612 83.5867 226.893 83.2534C227.185 82.9201 227.523 82.7898 227.914 82.8576C228.315 82.9148 228.586 83.144 228.726 83.5451C228.893 84.0763 229.029 84.3732 229.143 84.4409C229.268 84.5138 229.544 84.4617 229.976 84.2951C230.878 83.9617 231.758 83.7326 232.622 83.6076C233.497 83.4721 234.206 83.5034 234.747 83.7117C235.299 83.9096 235.508 84.5346 235.372 85.5867Z" fill="black"/>
<path d="M255.093 87.5659C255.411 87.6492 255.578 87.769 255.593 87.9201C255.604 88.0607 255.614 88.1284 255.614 88.1284C255.249 88.769 254.833 89.3524 254.364 89.8784C253.281 91.0867 252.031 92.0451 250.614 92.7534C249.916 93.144 249.125 93.3524 248.239 93.3784C246.208 93.4201 245.281 92.4409 245.447 90.4409C245.531 90.0138 245.624 89.5971 245.739 89.1909C245.822 88.9826 245.874 88.7846 245.906 88.5867C246.098 87.868 246.156 87.4617 246.072 87.3784C245.989 87.2951 245.749 87.5034 245.364 88.0034C245.249 88.0867 245.156 88.1857 245.072 88.2951C244.458 89.019 243.833 89.7326 243.197 90.4409C242.031 91.7742 240.697 92.894 239.197 93.7951C238.307 94.3263 237.364 94.6024 236.364 94.6284C234.729 94.7117 233.812 93.9617 233.614 92.3784C233.531 91.7534 233.562 91.1284 233.697 90.5034C234.364 87.9357 235.697 85.9774 237.697 84.6284C239.697 83.269 241.989 82.7899 244.572 83.1909C245.291 83.3992 245.822 83.2013 246.156 82.5867C246.291 82.368 246.432 82.1388 246.572 81.8992C247.265 80.6909 247.947 79.493 248.614 78.2951C249.864 75.993 251.125 73.6701 252.406 71.3367C253.432 69.5034 254.458 67.6596 255.489 65.7951C255.791 65.2274 256.124 64.6805 256.489 64.1492C256.656 63.8888 256.864 63.7274 257.114 63.6701C257.364 63.618 257.624 63.5867 257.906 63.5867C257.958 63.5867 258.031 63.5867 258.114 63.5867C258.416 63.5867 258.661 63.6649 258.843 63.8159C259.02 63.9721 259.057 64.1805 258.947 64.4409C258.749 65.0815 258.515 65.6857 258.239 66.2534C256.848 69.0451 255.536 71.8732 254.302 74.7326C253.062 77.5815 251.848 80.4513 250.656 83.3367C250.265 84.3367 249.864 85.3367 249.447 86.3367C248.947 87.5034 248.531 88.7065 248.197 89.9409C248.114 90.2065 248.072 90.4721 248.072 90.7326C248.072 90.9982 248.197 91.2326 248.447 91.4409C248.614 91.5399 248.786 91.5555 248.968 91.4826C249.145 91.4149 249.348 91.3367 249.572 91.2534C249.598 91.2117 249.64 91.1701 249.697 91.1284C251.14 90.2951 252.458 89.2951 253.656 88.1284C253.848 87.9357 254.057 87.7742 254.281 87.6492C254.5 87.5138 254.77 87.4826 255.093 87.5659ZM243.864 86.0867C244.031 85.8263 244.078 85.5659 244.01 85.3159C243.937 85.0659 243.765 84.8784 243.489 84.7534C242.932 84.4513 242.333 84.4149 241.697 84.6492C240.14 85.1076 238.833 85.9982 237.781 87.3159C236.723 88.6388 236.156 90.0971 236.072 91.6909C236.098 91.7638 236.114 91.8107 236.114 91.8367C236.114 91.9774 236.114 92.118 236.114 92.2534C236.249 92.9774 236.703 93.118 237.468 92.6701C238.229 92.2274 239.083 91.5034 240.031 90.5034C240.973 89.5034 241.822 88.5555 242.572 87.6492C243.322 86.7482 243.749 86.2274 243.864 86.0867Z" fill="black"/>
<path d="M256.573 94.1284H256.511C254.313 94.1023 252.876 93.618 252.178 92.67C251.485 91.7273 251.511 90.4617 252.261 88.8784C252.902 87.6857 253.704 86.644 254.678 85.7534C255.011 85.4513 255.349 85.2065 255.698 85.0242C256.042 84.8471 256.438 84.7534 256.886 84.7534C257.136 84.7117 257.428 84.7638 257.761 84.8992C257.87 84.9305 257.974 84.9617 258.073 85.0034C258.334 84.9617 258.584 84.8784 258.823 84.7534C258.891 84.7117 258.974 84.6805 259.073 84.6492C259.573 84.4409 260.105 84.3575 260.678 84.3992C260.896 84.3992 261.136 84.3992 261.386 84.3992C262.271 84.5242 262.938 84.8992 263.386 85.5242C263.844 86.1388 264.011 86.8784 263.886 87.7534C263.803 88.2846 263.636 88.7846 263.386 89.2534C261.636 92.3784 259.412 94.0034 256.719 94.1284H256.573ZM260.178 86.0034C258.98 85.9617 257.912 86.3107 256.969 87.045C256.037 87.769 255.344 88.6075 254.886 89.5659C254.438 90.5242 254.313 91.3107 254.511 91.92C254.719 92.5346 255.355 92.7065 256.428 92.4409C257.62 92.0659 258.678 91.3784 259.594 90.3784C260.511 89.3784 261.063 88.4357 261.261 87.545C261.469 86.644 261.105 86.1284 260.178 86.0034Z" fill="black"/>
</svg>
